# xmcd
#
# Track frame offsets:
#	150
#	14000
#	28675
#	43100
#	57387
#	71587
#	87437
#	100862
#	112975
#	127500
#	142037
#	158800
#
# Disc length: 2348 seconds
#
# Revision: 1
# Processed by: cddbd v1.5.2PL0 Copyright (c) Steve Scherf et al.
# Submitted via: audiograbber 1.83.01
#
DISCID=9f092a0c
DTITLE=Various Artist - Syksyn Sävel '90
DYEAR=1990
DGENRE=Pop
TTITLE0=Arja Koriseva - Rakkauden Värit
TTITLE1=Rainer Friman - Se On Salaisuus
TTITLE2=Anna Hanski - Nimeni On Nana
TTITLE3=Kari Tapio - Lottovoitto On Syntyä Suomeen
TTITLE4=Katri Helena - Kun Rakastetaan
TTITLE5=Samuli Edelman - Viimeinen Yö
TTITLE6=Irwin Goodman - Ai Ai Ai Kun Nuori Ois
TTITLE7=Kikka - Sukkula Venukseen
TTITLE8=Arto Nuotio - Sydän Tahtoo Sydämen
TTITLE9=Muska - Pidä Kii
TTITLE10=Tauski - Jos Annat Kaiken Saat Kaiken
TTITLE11=Tarja Ylitalo - Syys Surumielinen
EXTD=TR.
EXTT0=
EXTT1=
EXTT2=
EXTT3=
EXTT4=
EXTT5=
EXTT6=
EXTT7=
EXTT8=
EXTT9=
EXTT10=
EXTT11=
PLAYORDER=
